<?xml version="1.0" encoding="UTF-8"?>
<svg width="75px" height="64px" viewBox="0 0 75 64" version="1.1" xmlns="http://www.w3.org/2000/svg" xmlns:xlink="http://www.w3.org/1999/xlink">
    <!-- Generator: Sketch 52.2 (67145) - http://www.bohemiancoding.com/sketch -->
    <title>saving-pig</title>
    <desc>Created with Sketch.</desc>
    <g id="Design--HD-Site" stroke="none" stroke-width="1" fill="none" fill-rule="evenodd">
        <g id="Desktop-HD-modal-Select-Producto" transform="translate(-609.000000, -228.000000)" fill="#94BB20" fill-rule="nonzero">
            <g id="saving-pig" transform="translate(609.000000, 228.000000)">
                <path d="M74.348163,21.1680745 C74.9220967,19.7523118 75.1031179,18.1011059 74.945813,16.5877979 C74.7600485,14.8008669 74.2367355,13.0635233 73.2255672,11.5601484 L68.79428,14.1451338 L69.4187565,15.2419542 C69.5972117,15.724403 69.7320445,16.2184145 69.8245768,16.7242991 C69.8713872,17.2411254 69.8737978,17.7581846 69.82932,18.2755542 C69.7427751,18.7521053 69.6161069,19.2174818 69.4479936,19.6717613 C69.2389794,20.1064852 68.9945074,20.5201791 68.7161329,20.9141622 C68.5159832,21.1511574 68.3029256,21.3754259 68.0796039,21.5897614 C68.0558876,21.54289 68.0326379,21.4960187 68.0085328,21.4491473 C66.306949,18.1421571 63.882369,15.1813474 60.8017426,12.6492086 C54.5692632,7.52595399 46.3136697,4.70451666 37.5556024,4.70451666 C35.0010883,4.70451666 32.4854534,4.94740952 30.0542639,5.42776315 C28.2564154,3.51441921 25.896919,2.0862402 23.0169089,1.17116267 C20.5707898,0.393983094 17.7952868,0 14.7676138,0 C12.0752343,0 10.1455078,0.323055273 10.064717,0.336790748 L7.103294,0.840657643 L11.6812333,15.8069711 C10.4799461,17.2175346 9.4375967,18.72704 8.56678204,20.3174839 L0,22.7256929 L0,42.0999299 L8.56740411,44.5083718 C10.3504008,47.7595665 12.8671244,50.6858435 15.9391196,53.0824899 L14.5556448,63.5349538 L33.3955359,63.5349538 L35.8131955,60.083159 C36.3930388,60.1083795 36.9753703,60.1211062 37.5556801,60.1211062 C40.0392787,60.1211062 42.5035154,59.8917936 44.90539,59.4381349 L47.6009576,63.5349538 L66.490303,63.5349538 L64.50669,48.5578537 C66.3282548,46.4351408 67.774636,44.1171823 68.8143416,41.6526345 C70.0636056,38.6909712 70.6971021,35.5821753 70.6971021,32.4128502 C70.6971021,30.4291993 70.451075,28.4779858 69.9636863,26.5734108 C70.5854413,26.181911 71.1705721,25.7291835 71.7202452,25.2082443 C72.9185776,24.0721575 73.7347282,22.6813824 74.348163,21.1680745 Z M59.7960951,45.8996124 L58.941843,46.8108099 L60.4579734,58.2582808 L50.4544521,58.2582808 L47.3108415,53.4806635 L45.5031177,53.9147666 C42.9339073,54.5316214 40.2598788,54.8443556 37.5556024,54.8443556 C36.6056298,54.8443556 35.6501364,54.8050893 34.7154823,54.7277205 L33.2008293,54.6023164 L30.6401723,58.2582808 L20.5875856,58.2582808 L21.5957213,50.6416106 L20.2776412,49.7231962 C16.9920441,47.4339504 14.3939854,44.4601036 12.764328,41.1232367 L12.2452139,40.060173 L5.28756108,38.103993 L5.28756108,26.7215522 L12.2452139,24.765605 L12.764328,23.7025413 C13.7198213,21.7460509 14.9974672,19.9213279 16.5617299,18.2792014 L17.6246074,17.1634463 L13.9918975,5.28730433 C14.2401796,5.2806306 14.4991923,5.27682813 14.7676138,5.27682813 C17.2153658,5.27682813 19.5132776,5.59584812 21.4129117,6.19935541 C23.8441789,6.97180129 25.6918705,8.21505579 26.9046659,9.89466385 L27.9483372,11.3399928 L29.6817241,10.9139603 C32.1997696,10.2950879 34.8489932,9.98126718 37.5556024,9.98126718 C52.9143344,9.98126718 65.409541,20.0439384 65.409541,32.4127726 C65.409541,37.3185877 63.4685396,41.9822083 59.7960951,45.8996124 Z" id="Shape"></path>
                <ellipse id="Oval" cx="22.2383721" cy="23.9344004" rx="3.05232558" ry="3.04619641"></ellipse>
                <path d="M34.0116279,12.6184159 L35.1540705,17.5575355 C35.1720786,17.5535146 37.0411764,17.1606605 39.618616,17.2668413 C41.9936178,17.3646081 45.4458212,17.9212754 48.4050162,20.0178621 L51.4534884,15.9205939 C43.8492096,10.5329982 34.4097888,12.5307013 34.0116279,12.6184159 Z" id="Shape"></path>
            </g>
        </g>
    </g>
</svg>