<?xml version="1.0" encoding="UTF-8"?>
<svg width="70px" height="66px" viewBox="0 0 70 66" version="1.1" xmlns="http://www.w3.org/2000/svg" xmlns:xlink="http://www.w3.org/1999/xlink">
    <!-- Generator: Sketch 52.2 (67145) - http://www.bohemiancoding.com/sketch -->
    <title>coin</title>
    <desc>Created with Sketch.</desc>
    <g id="Design--HD-Site" stroke="none" stroke-width="1" fill="none" fill-rule="evenodd">
        <g id="Desktop-HD-modal-Select-Producto" transform="translate(-398.000000, -228.000000)" fill="#94BB20" fill-rule="nonzero">
            <g id="coin" transform="translate(398.000000, 228.000000)">
                <path d="M35,1.46549439e-15 C44.2825771,7.32747196e-16 53.1849641,3.47677573 59.7487373,9.66547622 C66.3125106,15.8541767 70,24.2478558 70,33 C70,51.2253967 54.3299662,66 35,66 C25.7174229,66 16.8150359,62.5232243 10.2512627,56.3345238 C3.68748941,50.1458233 7.77156117e-16,41.7521442 0,33 C-4.6629367e-15,24.2478558 3.68748941,15.8541767 10.2512627,9.66547622 C16.8150359,3.47677573 25.7174229,1.46549439e-15 35,0 Z M35,6.6 C19.536027,6.6 7,18.4196826 7,33 C7,47.5803174 19.536027,59.4 35,59.4 C42.4260617,59.4 49.5479713,56.6185794 54.7989899,51.667619 C60.0500085,46.7166586 63,40.0017153 63,33 C63,18.4196826 50.463973,6.6 35,6.6 Z M31.5,49.5 L31.5,46.2 L24.5,46.2 L24.5,39.6 L38.5,39.6 L38.5,36.3 L28,36.3 C26.0670034,36.3 24.5,34.8225397 24.5,33 L24.5,23.1 C24.5,21.2774603 26.0670034,19.8 28,19.8 L31.5,19.8 L31.5,16.5 L38.5,16.5 L38.5,19.8 L45.5,19.8 L45.5,26.4 L31.5,26.4 L31.5,29.7 L42,29.7 C43.9329966,29.7 45.5,31.1774603 45.5,33 L45.5,42.9 C45.5,44.7225397 43.9329966,46.2 42,46.2 L38.5,46.2 L38.5,49.5 L31.5,49.5 Z" id="Shape"></path>
            </g>
        </g>
    </g>
</svg>