<?xml version="1.0" encoding="UTF-8"?>
<svg width="60px" height="66px" viewBox="0 0 60 66" version="1.1" xmlns="http://www.w3.org/2000/svg" xmlns:xlink="http://www.w3.org/1999/xlink">
    <!-- Generator: Sketch 52.2 (67145) - http://www.bohemiancoding.com/sketch -->
    <title>baseline-directions_boat-24px</title>
    <desc>Created with Sketch.</desc>
    <g id="Design--HD-Site" stroke="none" stroke-width="1" fill="none" fill-rule="evenodd">
        <g id="Desktop-HD-modal-Select-Producto" transform="translate(-402.000000, -541.000000)">
            <g id="baseline-directions_boat-24px" transform="translate(397.000000, 539.000000)">
                <polygon id="Shape" points="0 0 70 0 70 70 0 70"></polygon>
                <path d="M58.2682832,61.2163892 C54.2260077,61.2163892 50.1837321,59.8473111 46.6358356,57.3713188 C39.5400425,62.3524328 30.4667334,62.3524328 23.3709403,57.3713188 C19.8230438,59.8473111 15.7807682,61.2163892 11.7384927,61.2163892 L5.92226884,61.2163892 L5.92226884,67.0422535 L11.7384927,67.0422535 C15.7516871,67.0422535 19.7067193,66.0227273 23.3709403,64.1584507 C30.6993823,67.9161332 39.3073936,67.9161332 46.6358356,64.1584507 C50.3000566,66.0518566 54.2550888,67.0422535 58.2682832,67.0422535 L64.084507,67.0422535 L64.084507,61.2163892 L58.2682832,61.2163892 Z M11.5930871,55.390525 L11.7384927,55.390525 C16.3914717,55.390525 20.5209906,52.8271447 23.3709403,49.5646607 C26.22089,52.8271447 30.3504089,55.390525 35.0033879,55.390525 C39.656367,55.390525 43.7858859,52.8271447 46.6358356,49.5646607 C49.4857853,52.8271447 53.6153042,55.390525 58.2682832,55.390525 L58.4136888,55.390525 L63.9100203,35.9321383 C64.1426693,35.1747759 64.084507,34.3591549 63.7355336,33.6600512 C63.3865602,32.9609475 62.7467756,32.4366197 61.9906665,32.2035851 L58.2682832,30.9801536 L58.2682832,17.5224072 C58.2682832,14.3181818 55.6509825,11.6965429 52.4520594,11.6965429 L43.7277237,11.6965429 L43.7277237,2.95774648 L26.2790522,2.95774648 L26.2790522,11.6965429 L17.5547165,11.6965429 C14.3557934,11.6965429 11.7384927,14.3181818 11.7384927,17.5224072 L11.7384927,30.9801536 L7.9870283,32.2035851 C7.2309192,32.4366197 6.59113458,32.9609475 6.24216115,33.6600512 C5.89318772,34.3591549 5.80594437,35.1747759 6.06767444,35.9321383 L11.5930871,55.390525 Z M17.5547165,17.5224072 L52.4520594,17.5224072 L52.4520594,29.0867478 L35.0033879,23.3482714 L17.5547165,29.0867478 L17.5547165,17.5224072 Z" id="Shape" fill="#94BB20" fill-rule="nonzero"></path>
            </g>
        </g>
    </g>
</svg>