<?xml version="1.0" encoding="UTF-8"?>
<svg width="70px" height="51px" viewBox="0 0 70 51" version="1.1" xmlns="http://www.w3.org/2000/svg" xmlns:xlink="http://www.w3.org/1999/xlink">
    <!-- Generator: Sketch 52.2 (67145) - http://www.bohemiancoding.com/sketch -->
    <title>truck</title>
    <desc>Created with Sketch.</desc>
    <g id="Design--HD-Site" stroke="none" stroke-width="1" fill="none" fill-rule="evenodd">
        <g id="Desktop-HD-modal-Select-Producto" transform="translate(-612.000000, -549.000000)" fill="#94BB20" fill-rule="nonzero">
            <g id="truck" transform="translate(612.000000, 549.000000)">
                <path d="M54.0909091,45.8159722 C51.4550046,45.8159722 49.3181818,43.6939885 49.3181818,41.0763889 C49.3181818,38.4587893 51.4550046,36.3368056 54.0909091,36.3368056 C56.7268136,36.3368056 58.8636364,38.4587893 58.8636364,41.0763889 C58.8636364,43.6939885 56.7268136,45.8159722 54.0909091,45.8159722 Z M58.8636364,17.3784722 L65.1,25.2777778 L50.9090909,25.2777778 L50.9090909,17.3784722 L58.8636364,17.3784722 Z M15.9090909,45.8159722 C13.2731864,45.8159722 11.1363636,43.6939885 11.1363636,41.0763889 C11.1363636,38.4587893 13.2731864,36.3368056 15.9090909,36.3368056 C18.5449954,36.3368056 20.6818182,38.4587893 20.6818182,41.0763889 C20.6818182,43.6939885 18.5449954,45.8159722 15.9090909,45.8159722 Z M60.4545455,12.6388889 L50.9090909,12.6388889 L50.9090909,0 L6.36363636,0 C2.83181818,0 0,2.81215278 0,6.31944444 L0,41.0763889 L6.36363636,41.0763889 C6.36363636,46.3115881 10.6372819,50.5555556 15.9090909,50.5555556 C21.1808999,50.5555556 25.4545455,46.3115881 25.4545455,41.0763889 L44.5454545,41.0763889 C44.5454545,46.3115881 48.8191001,50.5555556 54.0909091,50.5555556 C59.3627181,50.5555556 63.6363636,46.3115881 63.6363636,41.0763889 L70,41.0763889 L70,25.2777778 L60.4545455,12.6388889 Z" id="Shape"></path>
            </g>
        </g>
    </g>
</svg>