<?xml version="1.0" encoding="UTF-8"?>
<svg width="42px" height="40px" viewBox="0 0 42 55" version="1.1" xmlns="http://www.w3.org/2000/svg" xmlns:xlink="http://www.w3.org/1999/xlink">
    <!-- Generator: Sketch 52.2 (67145) - http://www.bohemiancoding.com/sketch -->
    <title>file-document-outline</title>
    <desc>Created with Sketch.</desc>
    <g id="Design--HD-Site" stroke="none" stroke-width="1" fill="none" fill-rule="evenodd">
        <g id="Desktop-HD-modal-Select-Producto" transform="translate(-827.000000, -539.000000)" fill="#94BB20" fill-rule="nonzero">
            <g id="file-document-outline" transform="translate(827.000000, 539.000000)">
                <path d="M5.25,0 C2.35050506,0 0,2.46243388 0,5.5 L0,49.5 C0,52.5375661 2.35050506,55 5.25,55 L36.75,55 C39.6494949,55 42,52.5375661 42,49.5 L42,16.5 L26.25,0 L5.25,0 Z M5,5.28846154 L23.0833333,5.28846154 L23.0833333,19.1706731 L36,19.1706731 L36,49.7115385 L5,49.7115385 L5,5.28846154 Z M10,27.5 L10,32.7884615 L31,32.7884615 L31,27.5 L10,27.5 Z M10,38.0769231 L10,43.3653846 L23,43.3653846 L23,38.0769231 L10,38.0769231 Z" id="Shape"></path>
            </g>
        </g>
    </g>
</svg>
