<?xml version="1.0" encoding="UTF-8"?>
<svg width="70px" height="70px" viewBox="0 0 70 70" version="1.1" xmlns="http://www.w3.org/2000/svg" xmlns:xlink="http://www.w3.org/1999/xlink">
    <!-- Generator: Sketch 52.2 (67145) - http://www.bohemiancoding.com/sketch -->
    <title>earth</title>
    <desc>Created with Sketch.</desc>
    <g id="Design--HD-Site" stroke="none" stroke-width="1" fill="none" fill-rule="evenodd">
        <g id="Desktop-HD-modal-Select-Producto" transform="translate(-816.000000, -228.000000)" fill="#94BB20" fill-rule="nonzero">
            <g id="earth" transform="translate(816.000000, 228.000000)">
                <path d="M55.65,53.865 C54.74,51.065 52.115,49 49,49 L45.5,49 L45.5,38.5 C45.5,36.5670034 43.9329966,35 42,35 L21,35 L21,28 L28,28 C29.9329966,28 31.5,26.4329966 31.5,24.5 L31.5,17.5 L38.5,17.5 C42.3659932,17.5 45.5,14.3659932 45.5,10.5 L45.5,9.065 C55.755,13.195 63,23.24 63,35 C63,42.28 60.2,48.895 55.65,53.865 Z M31.5,62.755 C17.675,61.04 7,49.28 7,35 C7,32.83 7.28,30.73 7.735,28.735 L24.5,45.5 L24.5,49 C24.5,52.8659932 27.6340068,56 31.5,56 L31.5,62.755 Z M35,1.55431223e-15 C15.6700338,-6.21724894e-15 1.55431223e-15,15.6700338 0,35 C-4.6629367e-15,44.2825771 3.68748941,53.1849641 10.2512627,59.7487373 C16.8150359,66.3125106 25.7174229,70 35,70 C44.2825771,70 53.1849641,66.3125106 59.7487373,59.7487373 C66.3125106,53.1849641 70,44.2825771 70,35 C70,25.7174229 66.3125106,16.8150359 59.7487373,10.2512627 C53.1849641,3.68748941 44.2825771,7.77156117e-16 35,1.55431223e-15 Z" id="Shape"></path>
            </g>
        </g>
    </g>
</svg>