<?xml version="1.0" encoding="UTF-8"?>
<svg width="26px" height="21px" viewBox="0 0 18 18" version="1.1" xmlns="http://www.w3.org/2000/svg" xmlns:xlink="http://www.w3.org/1999/xlink">
    <g stroke="none" stroke-width="1" fill="none" fill-rule="evenodd">
        <g transform="translate(-1143.000000, -282.000000)" fill-rule="nonzero" fill="#FFFFFF">
            <g id="contrast" transform="translate(1143.000000, 282.000000)">
                <path d="M1.38,17.9 C0.78,17.71 0.3,17.23 0.1,16.63 L16.63,0.1 C17.23,0.3 17.71,0.78 17.9,1.38 L1.38,17.9 L1.38,17.9 Z M17,13 L17,15 L10,15 L10,13 L17,13 L17,13 Z M0,3 L3,3 L3,0 L5,0 L5,3 L8,3 L8,5 L5,5 L5,8 L3,8 L3,5 L0,5 L0,3 Z" id="Shape"></path>
            </g>
        </g>
    </g>
</svg>
